<svg width="16" height="16" viewBox="0 0 16 16" fill="none" xmlns="http://www.w3.org/2000/svg">
<path d="M12.1354 2.9834C11.6318 2.9834 11.2227 3.39255 11.2227 3.89612C11.2227 4.39969 11.6318 4.80883 12.1354 4.80883C12.6389 4.80883 13.0481 4.39969 13.0481 3.89612C13.0481 3.39255 12.6389 2.9834 12.1354 2.9834Z" fill="white"/>
<path d="M8.0623 4.16064C5.94103 4.16064 4.21631 5.88535 4.21631 8.00663C4.21631 10.1279 5.94103 11.8526 8.0623 11.8526C10.1836 11.8526 11.9083 10.1279 11.9083 8.00663C11.9083 5.88535 10.1836 4.16064 8.0623 4.16064ZM8.0623 10.4678C6.70267 10.4678 5.60113 9.35996 5.60113 8.00663C5.60113 6.65329 6.70897 5.54544 8.0623 5.54544C9.41564 5.54544 10.5235 6.65329 10.5235 8.00663C10.5235 9.35996 9.41564 10.4678 8.0623 10.4678Z" fill="white"/>
<path d="M11.1154 15.8118H4.8838C2.29673 15.8118 0.194336 13.7094 0.194336 11.1223V4.89065C0.194336 2.30357 2.29673 0.201172 4.8838 0.201172H11.1154C13.7025 0.201172 15.8049 2.30357 15.8049 4.89065V11.1223C15.8049 13.7094 13.7025 15.8118 11.1154 15.8118ZM4.8838 1.66781C3.10873 1.66781 1.66098 3.11557 1.66098 4.89065V11.1223C1.66098 12.8974 3.10873 14.3451 4.8838 14.3451H11.1154C12.8905 14.3451 14.3383 12.8974 14.3383 11.1223V4.89065C14.3383 3.11557 12.8905 1.66781 11.1154 1.66781H4.8838Z" fill="white"/>
</svg>
