<svg width="17" height="17" viewBox="0 0 17 17" fill="none" xmlns="http://www.w3.org/2000/svg">
<path fill-rule="evenodd" clip-rule="evenodd" d="M8.22856 3.55677C4.06772 5.50492 0.465132 7.3152 0.222292 7.57942C-0.419527 8.27775 0.349401 9.11779 2.25838 9.80332C4.2117 10.5046 4.36274 10.7099 5.16423 13.7517C5.82566 16.262 6.44512 16.7631 7.37607 15.5423C8.58243 13.9613 9.26073 13.9617 11.0367 15.5453C13.0034 17.2988 13.9006 17.4465 14.402 16.0994C15.0132 14.4569 17.2431 0.893221 16.9783 0.427099C16.8406 0.184221 16.5173 -0.0078625 16.2603 0.000247674C16.0034 0.00835785 12.389 1.60862 8.22856 3.55677ZM10.3384 7.42405C8.68796 9.40208 7.09675 11.7553 6.80291 12.653C6.2725 14.2712 6.26466 14.2759 5.8849 13.2181C4.8084 10.2204 4.67109 10.4935 8.98494 7.04458C11.198 5.27528 13.083 3.8274 13.174 3.8274C13.265 3.8274 11.9889 5.44602 10.3384 7.42405Z" fill="white"/>
</svg>
