<svg width="18" height="18" viewBox="0 0 18 18" fill="none" xmlns="http://www.w3.org/2000/svg">
<path fill-rule="evenodd" clip-rule="evenodd" d="M13.2653 10.5391C13.0551 10.4227 12.0204 9.86653 11.8264 9.78893C11.6324 9.71133 11.4901 9.66929 11.3413 9.87947C11.1926 10.0864 10.7626 10.5553 10.6332 10.6943C10.5039 10.8333 10.3778 10.8463 10.1676 10.7299C9.95743 10.6135 9.27517 10.3613 8.4862 9.60139C7.87185 9.00967 7.46766 8.29184 7.35126 8.07197C7.23486 7.85209 7.35126 7.74215 7.4612 7.63868C7.56143 7.54491 7.68431 7.39617 7.79748 7.27654C7.90741 7.1569 7.94622 7.06636 8.02382 6.92732C8.10142 6.78828 8.06909 6.66218 8.02059 6.55224C7.97208 6.44231 7.58084 5.37203 7.41916 4.93875C7.25749 4.50223 7.07642 4.5669 6.95031 4.56367C6.82421 4.56043 6.68193 4.53457 6.53966 4.53133C6.39739 4.52487 6.16135 4.57013 5.95764 4.77707C5.75393 4.98401 5.17838 5.48197 5.13958 6.53607C5.10077 7.59018 5.8283 8.63782 5.93177 8.78333C6.03201 8.93207 7.32539 11.2149 9.46917 12.1558C11.6162 13.0968 11.6259 12.809 12.0204 12.7896C12.4149 12.7702 13.3073 12.3175 13.5045 11.826C13.7018 11.3313 13.7179 10.9045 13.6662 10.8139C13.6145 10.7234 13.4754 10.662 13.2653 10.5488V10.5391ZM9.33014 15.6189C7.91065 15.6189 6.5914 15.192 5.48556 14.4645L2.80179 15.3246L3.67482 12.7314C2.83736 11.5803 2.34587 10.164 2.34587 8.63459C2.34587 4.78031 5.47909 1.64709 9.33014 1.64709C13.1812 1.64709 16.3176 4.78031 16.3176 8.63459C16.3176 12.4889 13.1844 15.6221 9.33014 15.6221V15.6189ZM9.33014 0.240536C4.69659 0.240536 0.939318 3.99781 0.939318 8.63135C0.939318 10.2157 1.37907 11.6999 2.1454 12.9642L0.628906 17.4652L5.27538 15.9778C6.47823 16.6439 7.85891 17.0222 9.33014 17.0222C13.9669 17.0222 17.7242 13.2649 17.7242 8.62812C17.7242 3.99135 13.9669 0.237305 9.33014 0.237305V0.240536Z" fill="white"/>
</svg>
