<svg width="23" height="24" viewBox="0 0 23 24" fill="none" xmlns="http://www.w3.org/2000/svg">
<path fill-rule="evenodd" clip-rule="evenodd" d="M0.146331 23.0827C0.510452 23.8437 1.44447 24.1945 2.29887 23.8913C2.61982 23.7774 12.5585 13.0812 12.8561 12.5295C12.9891 12.2828 13.0344 11.9643 12.9731 11.7064C12.8665 11.2575 2.94565 0.419661 2.38902 0.144075C1.94161 -0.077467 1.1159 -0.0379543 0.711199 0.224367C0.240756 0.529161 -0.101399 1.30893 0.0273478 1.7832C0.0833312 1.98964 2.17714 4.36859 4.68007 7.06956L9.23104 11.9806L4.86831 16.6764C2.4688 19.2591 0.415112 21.4992 0.30467 21.6544C-0.0226874 22.1145 -0.0780598 22.6136 0.146331 23.0827Z" fill="#7D7D7D"/>
<path fill-rule="evenodd" clip-rule="evenodd" d="M10.1463 23.0827C10.5105 23.8437 11.4445 24.1945 12.2989 23.8913C12.6198 23.7774 22.5585 13.0812 22.8561 12.5295C22.9891 12.2828 23.0344 11.9643 22.9731 11.7064C22.8665 11.2575 12.9457 0.419661 12.389 0.144075C11.9416 -0.077467 11.1159 -0.0379543 10.7112 0.224367C10.2408 0.529161 9.8986 1.30893 10.0273 1.7832C10.0833 1.98964 12.1771 4.36859 14.6801 7.06956L19.231 11.9806L14.8683 16.6764C12.4688 19.2591 10.4151 21.4992 10.3047 21.6544C9.97731 22.1145 9.92194 22.6136 10.1463 23.0827Z" fill="#7D7D7D"/>
</svg>
