<svg width="13" height="24" viewBox="0 0 13 24" fill="none" xmlns="http://www.w3.org/2000/svg">
<path fill-rule="evenodd" clip-rule="evenodd" d="M0.146331 23.0827C0.510452 23.8437 1.44447 24.1945 2.29887 23.8913C2.61982 23.7774 12.5585 13.0812 12.8561 12.5295C12.9891 12.2828 13.0344 11.9643 12.9731 11.7064C12.8665 11.2575 2.94565 0.419661 2.38902 0.144075C1.94161 -0.0774657 1.1159 -0.0379544 0.711199 0.224367C0.240756 0.529162 -0.101399 1.30893 0.0273478 1.7832C0.0833312 1.98964 2.17714 4.36859 4.68007 7.06956L9.23104 11.9806L4.86831 16.6764C2.4688 19.2591 0.415112 21.4992 0.30467 21.6544C-0.0226874 22.1145 -0.0780598 22.6136 0.146331 23.0827Z" fill="#7D7D7D"/>
</svg>
