<svg width="20" height="20" viewBox="0 0 20 20" fill="none" xmlns="http://www.w3.org/2000/svg">
<path fill-rule="evenodd" clip-rule="evenodd" d="M7.6 1.1184C7.6 1.934 7.7084 2.3746 8 2.7454L8.4 3.254V2.027V0.8H11.4H14.4V3.2V5.6H16.8H19.2V10.8V16H16.2C13.3334 16 13.2 16.0178 13.2 16.4C13.2 16.7844 13.3334 16.8 16.6 16.8H20V10.9472V5.0942L17.4472 2.5472L14.8944 0H11.2472H7.6V1.1184ZM17 3.1L18.6912 4.8H16.9456H15.2V3.1C15.2 2.165 15.2244 1.4 15.2544 1.4C15.2844 1.4 16.0698 2.165 17 3.1ZM0 11.6V20H6.2H12.4V14.1472V8.2942L9.8472 5.7472L7.2944 3.2H3.6472H0V11.6ZM6.8 6.4V8.8H9.2H11.6V14V19.2H6.2H0.8V11.6V4H3.8H6.8V6.4ZM9.4 6.3L11.0912 8H9.3456H7.6V6.3C7.6 5.365 7.6244 4.6 7.6544 4.6C7.6844 4.6 8.4698 5.365 9.4 6.3Z" fill="white"/>
</svg>
