<svg width="25" height="25" viewBox="0 0 25 25" fill="none" xmlns="http://www.w3.org/2000/svg">
<path d="M12.3488 19.3761C11.3495 19.3761 10.3997 19.2 9.6732 18.8504C8.87227 18.476 8.44824 17.9503 8.44824 17.375C8.44824 17.075 8.57223 16.5989 9.22438 16.1748C9.37316 16.0756 9.54921 16.1252 9.6484 16.2492C9.74759 16.398 9.69799 16.5741 9.57401 16.6732C9.34836 16.8245 9.07312 17.0725 9.07312 17.3477C9.07312 17.9974 10.4221 18.6967 12.3488 18.6967C14.2755 18.6967 15.6244 17.9726 15.6244 17.3477C15.6244 17.0725 15.374 16.822 15.1756 16.698C15.0243 16.5989 14.9995 16.398 15.1012 16.274C15.2004 16.1252 15.4012 16.1004 15.5252 16.1996C16.1253 16.6237 16.2493 17.075 16.2493 17.375C16.2493 17.9503 15.8005 18.476 15.0243 18.8504C14.3003 19.2 13.3505 19.3761 12.3488 19.3761Z" fill="#1C1C1C"/>
<path d="M12.4998 19.3018C12.4006 19.3018 12.2989 19.2522 12.2493 19.1506L5.99808 9.77496C5.89889 9.62618 5.94848 9.42533 6.07247 9.35094C6.22125 9.25175 6.4221 9.30134 6.49649 9.42532L12.4973 18.4017L18.1732 9.42532C18.2724 9.27654 18.4485 9.22447 18.5973 9.32614C18.746 9.42533 18.7981 9.60139 18.6965 9.75017L12.7725 19.1506C12.6981 19.225 12.5965 19.3018 12.4973 19.3018H12.4998Z" fill="#1C1C1C"/>
<path d="M12.4999 19.302C12.3511 19.302 12.2495 19.2028 12.1999 19.0763L9.40034 9.70069C9.35074 9.52463 9.44993 9.35105 9.60119 9.30146C9.77725 9.25187 9.95082 9.35106 10.0004 9.50232L12.4999 17.8266L14.7242 9.52711C14.7738 9.35105 14.9498 9.25187 15.0986 9.30146C15.2747 9.35105 15.3739 9.52711 15.3243 9.67589L12.8248 19.0515C12.7752 19.2028 12.6487 19.2772 12.4999 19.302Z" fill="#1C1C1C"/>
<path d="M18.4487 9.92647H6.24872C6.12473 9.92647 6.02307 9.87687 5.97347 9.77769C5.92388 9.6785 5.92388 9.55204 5.97347 9.45285L7.8481 6.32847C7.8977 6.22928 7.99688 6.17969 8.12335 6.17969H16.5741C16.6732 6.17969 16.7749 6.22928 16.8493 6.32847L18.7239 9.45285C18.7735 9.55204 18.7735 9.6785 18.7239 9.77769C18.6743 9.87687 18.5479 9.92647 18.4487 9.92647ZM6.7992 9.30159H17.8734L16.3732 6.80209H8.29692L6.79672 9.30159H6.7992Z" fill="#1C1C1C"/>
<path d="M14.9993 9.92628C14.9001 9.92628 14.8233 9.90148 14.7737 9.82709L12.1998 6.95315L9.92592 9.80229C9.85153 9.87668 9.74987 9.92628 9.65068 9.92628C9.55149 9.92628 9.44982 9.85189 9.40023 9.75022L7.82565 6.62584C7.75126 6.47706 7.80085 6.2762 7.9769 6.20181C8.12569 6.12742 8.32654 6.17702 8.40093 6.35059L9.74987 9.02616L11.9493 6.27621C11.9989 6.20182 12.0981 6.15222 12.175 6.15222C12.2742 6.15222 12.351 6.17702 12.4254 6.25141L14.9249 9.02616L16.2739 6.301C16.3483 6.14974 16.5491 6.07535 16.6979 6.14974C16.8492 6.22413 16.9235 6.42498 16.8492 6.57376L15.2746 9.74774C15.225 9.84693 15.1506 9.899 15.0241 9.92379H14.9993V9.92628Z" fill="#1C1C1C"/>
<path d="M6.57349 15.9517C6.0478 15.9517 5.62378 15.5277 5.62378 15.002C5.62378 14.4763 6.0478 14.0522 6.57349 14.0522C7.09918 14.0522 7.49841 14.4763 7.49841 15.002C7.49841 15.5277 7.07438 15.9517 6.57349 15.9517ZM6.57349 14.7019C6.39744 14.7019 6.24866 14.8532 6.24866 15.0268C6.24866 15.2003 6.39992 15.3516 6.57349 15.3516C6.74707 15.3516 6.89833 15.2028 6.89833 15.0268C6.89833 14.8507 6.72227 14.7019 6.57349 14.7019Z" fill="#1C1C1C"/>
<path d="M18.4487 14.6997C17.7495 14.6997 17.199 14.1492 17.199 13.4499C17.199 12.7507 17.7495 12.2002 18.4487 12.2002C19.148 12.2002 19.6985 12.7507 19.6985 13.4499C19.6985 14.1492 19.1232 14.6997 18.4487 14.6997ZM18.4487 12.8251C18.0991 12.8251 17.8239 13.1003 17.8239 13.4499C17.8239 13.7996 18.0991 14.0748 18.4487 14.0748C18.7984 14.0748 19.0736 13.7996 19.0736 13.4499C19.0736 13.1003 18.7736 12.8251 18.4487 12.8251Z" fill="#1C1C1C"/>
</svg>
